<svg width="21" height="22" viewBox="0 0 21 22" fill="none" xmlns="http://www.w3.org/2000/svg">
<path d="M10.5534 21.419L9.0458 19.8891L10.5534 18.3592L12.0611 19.8891L10.5534 21.419ZM7.08588 19.8891L6.03053 18.8181L8.99555 15.8093L10.0509 16.8802L7.08588 19.8891ZM13.5687 18.3592L12.0611 16.8292L13.5687 15.2993L15.0763 16.8292L13.5687 18.3592ZM4.5229 18.3592L3.01527 16.8292L4.5229 15.2993L6.03053 16.8292L4.5229 18.3592ZM5.52799 14.2793C4.0036 14.2793 2.70101 13.7309 1.6202 12.6342C0.539398 11.5374 -0.000669437 10.2158 6.22732e-07 8.6696C6.22732e-07 7.25867 0.460666 6.02622 1.382 4.97227C2.30333 3.91832 3.44243 3.29785 4.7993 3.11086C5.33535 2.1419 6.06839 1.38102 6.99844 0.828203C7.92848 0.275389 8.94596 -0.000678716 10.0509 1.25301e-06C11.5585 1.25301e-06 12.8695 0.488899 13.9838 1.46669C15.0981 2.44449 15.7722 3.66401 16.006 5.12527C17.1619 5.22726 18.1335 5.71174 18.9208 6.5787C19.7081 7.44566 20.1018 8.48261 20.1018 9.68955C20.1018 10.9645 19.6622 12.0484 18.7831 12.9412C17.904 13.834 16.8359 14.28 15.5789 14.2793H5.52799Z" fill="white"/>
</svg>
